<svg xmlns="http://www.w3.org/2000/svg" xmlns:xlink="http://www.w3.org/1999/xlink" viewBox="0 0 2453.63 979.62"><defs><style>.a{fill:none;}.b{clip-path:url(#a);}.c{clip-path:url(#b);}.d{fill:#d1acf4;}.e{fill:#fbe5e4;}.f{fill:#f5cedd;}</style><clipPath id="a" transform="translate(78.57 -0.19)"><rect class="a" y="1" width="1841" height="979"/></clipPath><clipPath id="b" transform="translate(78.57 -0.19)"><rect class="a" x="0.41" y="0.82" width="284" height="257"/></clipPath></defs><g class="b"><g class="c"><path class="d" d="M93.58,222.59a289.84,289.84,0,0,0,37.28,0,14.3,14.3,0,0,1,2.07,0c6.48.64,13,7.15,14.49,14.51a19.94,19.94,0,0,1-10.35,20.72H.39V.82H284.1a52.68,52.68,0,0,1-4.14,27c-6.21,14-19.57,26.34-35.2,29a43.66,43.66,0,0,1-10.59.33c-11.61-.53-28.39-.91-50.24,0a17.94,17.94,0,0,0-4,.15c-11.81,1.89-24.09,15.27-24.21,30.61-.15,20.52,21.45,30.51,22.78,31.09A31.45,31.45,0,0,0,184.7,121h33.13a19.51,19.51,0,0,1,14.5,6.22A18,18,0,0,1,234.4,148a13.56,13.56,0,0,1-8.28,6.21,40.36,40.36,0,0,1-6.22,0H89.44a20.46,20.46,0,0,0-4.14,0c-11.54,1.33-19.74,13.06-22.78,20.73-7.71,19.52,7.64,38.61,8.28,39.38a33.66,33.66,0,0,0,10.36,6.22A39.45,39.45,0,0,0,93.58,222.59Z" transform="translate(78.57 -0.19)"/></g><path class="d" d="M1193.85,1.55l.18,17.66c4.91,5.65,8.79,7.64,18.86,7.94,9.5-.26,12.77-2.56,16.88-8.29l-.17-17.38L1294,1.34c-.61,31.8.77,76.26,1,96.65.21,20.56,42.5,40.52,76.15,38.18,40.77-2.66,53.79-11.57,68.39-33.95l-.46-45.85c12.17-21.69,25.26-27.81,55.61-32l46.31-.45c39.54,6.07,54.2,13.84,65.13,36.52,34.58,45.94,62.37,61.91,127.59,72.16,27.19,1.57,41.93,2.1,63.07-.62,22.6-3.8,32.78-6.72,47.25-13.11L1842.87.19,1294,1.34c0-.26,0-.51,0-.77l-64.45.63v.28Z" transform="translate(78.57 -0.19)"/><path class="e" d="M755.11,384.44H924.69c40.74,0,73.42,35.45,73.42,79.54s-32.68,79.53-73.42,79.53l-43.1-2.27c-44.05,0-79.58,38.63-79.58,86.35s35.53,86.35,79.58,86.35l1.42.45c90.47,0,163.42,59.54,163.42,132.71,0,73.63-73,132.71-163.42,132.71l-942.63-.45V873h52.1c60.16,0,109-46.81,109-104.53S52.64,664-7.52,664h-71V450.34h81c24.63,0,45-19.08,45-43.17,0-23.63-19.89-43.18-45-43.18l-37.89-.45c-15.64,0-28.43-12.27-28.43-27.27S-51.1,309-35.46,309H158.75c20.84,0,37.89-20.91,37.89-46.81s-17-46.81-37.89-46.81H99.54c-15.64,0-28.43-12.27-28.43-27.27s12.79-27.27,28.43-27.27l560.84,2.27c11.37,0,20.84,8.64,20.84,20,0,10.91-9,20-20.84,20H617.27c-15.16,0-27.47,15-27.47,33.63s12.31,33.63,27.47,33.63H767.43l2.37-.45c14.21,0,26.05,11.36,26.05,25s-11.84,25-26.05,25H739c-18.47,0-33.16,14.09-33.16,31.81s14.69,31.81,33.16,31.81h16.1Z" transform="translate(78.57 -0.19)"/><path class="f" d="M2375.06,570.33c0,122.88-133.87,222.5-299,222.5s-299-99.62-299-222.5,133.87-222.5,299-222.5S2375.06,447.44,2375.06,570.33Z" transform="translate(78.57 -0.19)"/></g></svg>