<?xml version="1.0" encoding="utf-8"?>
<!-- Generator: Adobe Illustrator 26.0.2, SVG Export Plug-In . SVG Version: 6.00 Build 0)  -->
<svg version="1.1" id="Layer_1" xmlns="http://www.w3.org/2000/svg" xmlns:xlink="http://www.w3.org/1999/xlink" x="0px" y="0px"
	 viewBox="0 0 1920 1080" style="enable-background:new 0 0 1920 1080;" xml:space="preserve">
<style type="text/css">
	.st0{clip-path:url(#SVGID_00000047749996685019314050000017987702169405732506_);}
	.st1{clip-path:url(#SVGID_00000078747172169031020810000000483527779224941494_);}
	.st2{fill:#D1ACF4;}
	.st3{fill:#FBE5E4;}
	.st4{fill:#F5CEDD;}
</style>
<g>
	<defs>
		<rect id="SVGID_1_" x="-0.1" y="-0.5" width="1919" height="1020.5"/>
	</defs>
	<clipPath id="SVGID_00000147903898040842136590000000500507514761660318_">
		<use xlink:href="#SVGID_1_"  style="overflow:visible;"/>
	</clipPath>
	<g style="clip-path:url(#SVGID_00000147903898040842136590000000500507514761660318_);">
		<g>
			<defs>
				<rect id="SVGID_00000150796196318775845320000011230796039350804402_" x="0.3" y="-0.7" width="296" height="267.9"/>
			</defs>
			<clipPath id="SVGID_00000051356878197831463650000009676327060964958117_">
				<use xlink:href="#SVGID_00000150796196318775845320000011230796039350804402_"  style="overflow:visible;"/>
			</clipPath>
			<g style="clip-path:url(#SVGID_00000051356878197831463650000009676327060964958117_);">
				<path class="st2" d="M97.4,230.5c12.9,0.8,25.9,0.8,38.9,0c0.7-0.1,1.4-0.1,2.2,0c6.8,0.7,13.6,7.5,15.1,15.1
					c1.4,8.8-3,17.4-10.8,21.6H0.3V-0.7H296c1.1,9.6-0.4,19.3-4.3,28.1c-6.5,14.6-20.4,27.5-36.7,30.2c-3.7,0.6-7.4,0.7-11,0.3
					c-12.1-0.6-29.6-0.9-52.4,0c-1.4-0.1-2.8-0.1-4.2,0.2c-12.3,2-25.1,15.9-25.2,31.9c-0.2,21.4,22.4,31.8,23.7,32.4
					c2.1,0.9,4.2,1.6,6.5,2.1h34.5c5.7-0.1,11.2,2.3,15.1,6.5c5.3,6,6.1,14.7,2.2,21.7c-1.9,3.2-5,5.5-8.6,6.5
					c-2.2,0.2-4.3,0.2-6.5,0h-136c-1.4-0.1-2.9-0.1-4.3,0c-12,1.4-20.6,13.6-23.7,21.6c-8,20.3,8,40.2,8.6,41
					c3.2,2.8,6.8,5,10.8,6.5C88.6,229.8,93,230.5,97.4,230.5z"/>
			</g>
		</g>
		<path class="st2" d="M1244.3,0.1l0.2,18.4c5.1,5.9,9.2,8,19.7,8.3c9.9-0.3,13.3-2.7,17.6-8.6L1281.5,0l67.1-0.1
			c-0.6,33.1,0.8,79.5,1,100.7c0.2,21.4,44.3,42.2,79.4,39.8c42.5-2.8,56.1-12.1,71.3-35.4l-0.5-47.8c12.7-22.6,26.3-29,58-33.4
			l48.3-0.5c41.2,6.3,56.5,14.4,67.9,38.1c36,47.9,65,64.5,133,75.2c28.3,1.6,43.7,2.2,65.7-0.6c23.6-4,34.2-7,49.3-13.7l-1.2-123.7
			l-572.1,1.2c0-0.3,0-0.5,0-0.8l-67.2,0.7V0L1244.3,0.1z"/>
		<path class="st3" d="M787,399.2h176.8c42.5,0,76.5,37,76.5,82.9s-34.1,82.9-76.5,82.9l-44.9-2.4c-45.9,0-83,40.3-83,90
			c0,49.7,37,90,83,90l1.5,0.5c94.3,0,170.3,62.1,170.3,138.3c0,76.7-76.1,138.3-170.3,138.3l-982.6-0.5V908.5H-8
			c62.7,0,113.6-48.8,113.6-109S54.7,690.6-8,690.6h-74V467.9H2.4c25.7,0,46.9-19.9,46.9-45c0-24.6-20.7-45-46.9-45l-39.5-0.5
			c-16.3,0-29.6-12.8-29.6-28.4c0-15.6,13.3-28.4,29.6-28.4h202.4c21.7,0,39.5-21.8,39.5-48.8S187.1,223,165.3,223h-61.7
			C87.3,223,74,210.2,74,194.6s13.3-28.4,29.6-28.4l584.6,2.4c11.9,0,21.7,9,21.7,20.8c0,11.4-9.4,20.8-21.7,20.8h-44.9
			c-15.8,0-28.6,15.6-28.6,35.1s12.8,35.1,28.6,35.1h156.5l2.5-0.5c14.8,0,27.2,11.8,27.2,26.1S817.1,332,802.3,332h-32.1
			c-19.3,0-34.6,14.7-34.6,33.2c0,18.5,15.3,33.2,34.6,33.2h16.8L787,399.2z"/>
		<path class="st4" d="M2475.5,593c0,128.1-139.5,231.9-311.7,231.9S1852.2,721.1,1852.2,593s139.5-231.9,311.7-231.9
			S2475.5,464.9,2475.5,593z"/>
	</g>
</g>
</svg>
